<svg xmlns="http://www.w3.org/2000/svg" xmlns:xlink="http://www.w3.org/1999/xlink" width="500" zoomAndPan="magnify" viewBox="0 0 375 74.999997" height="100" preserveAspectRatio="xMidYMid meet" version="1.0"><defs><g/><clipPath id="856e04b4d0"><rect x="0" width="375" y="0" height="40"/></clipPath></defs><g transform="matrix(1, 0, 0, 1, 0, 13)"><g clip-path="url(#856e04b4d0)"><g fill="#000000" fill-opacity="1"><g transform="translate(0.0000075, 34.693483)"><g><path d="M 1.59375 0 L 1.59375 -32.21875 L 33.8125 -32.21875 L 33.8125 0 Z M 32.796875 -31.203125 L 2.609375 -31.203125 L 2.609375 -1.015625 L 32.796875 -1.015625 Z M 3 -1.40625 L 3 -30.828125 L 32.421875 -30.828125 L 32.421875 -1.40625 Z M 29.46875 -23.578125 L 31.984375 -23.578125 L 31.984375 -24.59375 L 3.4375 -24.59375 L 3.4375 -23.578125 L 5.9375 -23.578125 L 5.9375 -24.15625 L 18.84375 -24.15625 L 18.84375 -23.578125 L 20.828125 -23.578125 L 20.828125 -24.15625 L 29.46875 -24.15625 Z M 31.984375 -22.125 L 31.984375 -23.140625 L 28.125 -23.140625 C 27.726562 -22.878906 27.289062 -22.539062 26.8125 -22.125 Z M 23.921875 -22.125 C 23.753906 -22.382812 23.601562 -22.578125 23.46875 -22.703125 C 23.34375 -22.835938 23.15625 -22.984375 22.90625 -23.140625 L 16.1875 -23.140625 C 16.050781 -22.910156 15.984375 -22.71875 15.984375 -22.5625 C 15.984375 -22.5 15.984375 -22.453125 15.984375 -22.421875 C 15.984375 -22.390625 16.019531 -22.289062 16.09375 -22.125 Z M 9.28125 -22.125 C 9.082031 -22.382812 8.898438 -22.578125 8.734375 -22.703125 C 8.578125 -22.835938 8.367188 -22.984375 8.109375 -23.140625 L 3.4375 -23.140625 L 3.4375 -22.125 Z M 31.984375 -20.671875 L 31.984375 -21.6875 L 26.421875 -21.6875 C 26.265625 -21.5 26.128906 -21.335938 26.015625 -21.203125 C 25.898438 -21.078125 25.765625 -20.898438 25.609375 -20.671875 Z M 24.34375 -20.671875 C 24.3125 -20.992188 24.234375 -21.332031 24.109375 -21.6875 L 16.234375 -21.6875 C 16.296875 -21.53125 16.347656 -21.398438 16.390625 -21.296875 C 16.441406 -21.203125 16.503906 -21.109375 16.578125 -21.015625 L 16.765625 -20.671875 Z M 9.5625 -21.6875 L 3.4375 -21.6875 L 3.4375 -20.671875 L 10.1875 -20.671875 Z M 31.984375 -19.234375 L 31.984375 -20.25 L 25.3125 -20.25 C 25.25 -20.113281 25.1875 -20 25.125 -19.90625 C 25.0625 -19.8125 24.914062 -19.585938 24.6875 -19.234375 Z M 24.015625 -19.234375 C 24.109375 -19.453125 24.171875 -19.617188 24.203125 -19.734375 C 24.234375 -19.847656 24.265625 -20.019531 24.296875 -20.25 L 16.953125 -20.25 L 17.53125 -19.234375 Z M 10.390625 -20.25 L 3.4375 -20.25 L 3.4375 -19.234375 L 10.96875 -19.234375 Z M 31.984375 -17.78125 L 31.984375 -18.796875 L 24.453125 -18.796875 L 23.859375 -17.78125 Z M 23.859375 -18.796875 L 17.78125 -18.796875 L 18.359375 -17.78125 L 23.28125 -17.78125 Z M 11.203125 -18.796875 L 3.4375 -18.796875 L 3.4375 -17.78125 L 11.78125 -17.78125 Z M 31.984375 -16.328125 L 31.984375 -17.34375 L 23.625 -17.34375 L 23.046875 -16.328125 Z M 23.046875 -17.34375 L 18.546875 -17.34375 L 19.125 -16.328125 L 22.421875 -16.328125 Z M 11.984375 -17.34375 L 3.4375 -17.34375 L 3.4375 -16.328125 L 12.5625 -16.328125 Z M 31.984375 -14.875 L 31.984375 -15.890625 L 22.796875 -15.890625 L 22.21875 -14.875 Z M 22.21875 -15.890625 L 19.375 -15.890625 L 19.90625 -14.875 L 21.59375 -14.875 Z M 12.796875 -15.890625 L 3.4375 -15.890625 L 3.4375 -14.875 L 13.375 -14.875 Z M 31.984375 -13.4375 L 31.984375 -14.453125 L 22.03125 -14.453125 L 21.40625 -13.4375 Z M 21.359375 -14.453125 L 20.140625 -14.453125 L 20.71875 -13.375 Z M 13.578125 -14.453125 L 3.4375 -14.453125 L 3.4375 -13.4375 L 14.15625 -13.4375 Z M 31.984375 -11.984375 L 31.984375 -13 L 21.203125 -13 L 20.625 -11.984375 Z M 14.390625 -13 L 3.4375 -13 L 3.4375 -11.984375 L 14.984375 -11.984375 Z M 31.984375 -10.53125 L 31.984375 -11.546875 L 20.390625 -11.546875 L 19.8125 -10.53125 Z M 15.21875 -11.546875 L 3.4375 -11.546875 L 3.4375 -10.53125 L 15.75 -10.53125 Z M 31.984375 -9.078125 L 31.984375 -10.09375 L 19.5625 -10.09375 L 18.984375 -9.078125 Z M 15.984375 -10.09375 L 3.4375 -10.09375 L 3.4375 -9.078125 L 16.578125 -9.078125 Z M 31.984375 -7.640625 L 31.984375 -8.640625 L 18.75 -8.640625 L 18.171875 -7.640625 Z M 16.8125 -8.640625 L 3.4375 -8.640625 L 3.4375 -7.640625 L 17.390625 -7.640625 Z M 3.4375 -30.390625 L 3.4375 -29.375 L 31.984375 -29.375 L 31.984375 -30.390625 Z M 3.4375 -28.9375 L 3.4375 -27.921875 L 31.984375 -27.921875 L 31.984375 -28.9375 Z M 3.4375 -27.484375 L 3.4375 -26.46875 L 31.984375 -26.46875 L 31.984375 -27.484375 Z M 3.4375 -26.046875 L 3.4375 -25.03125 L 31.984375 -25.03125 L 31.984375 -26.046875 Z M 3.4375 -7.203125 L 3.4375 -6.1875 L 31.984375 -6.1875 L 31.984375 -7.203125 Z M 3.4375 -5.75 L 3.4375 -4.734375 L 31.984375 -4.734375 L 31.984375 -5.75 Z M 3.4375 -4.296875 L 3.4375 -3.28125 L 31.984375 -3.28125 L 31.984375 -4.296875 Z M 3.4375 -2.84375 L 3.4375 -1.828125 L 31.984375 -1.828125 L 31.984375 -2.84375 Z M 23.234375 -23.578125 C 23.691406 -23.347656 24.085938 -22.941406 24.421875 -22.359375 C 24.753906 -21.785156 24.921875 -21.222656 24.921875 -20.671875 L 25.21875 -21.15625 C 25.414062 -21.507812 25.566406 -21.789062 25.671875 -22 C 25.785156 -22.21875 25.890625 -22.40625 25.984375 -22.5625 C 26.085938 -22.71875 26.1875 -22.867188 26.28125 -23.015625 C 26.375 -23.160156 26.503906 -23.347656 26.671875 -23.578125 Z M 8.40625 -23.578125 C 9.050781 -23.347656 9.773438 -22.507812 10.578125 -21.0625 L 17.78125 -7.921875 L 19.65625 -11.3125 L 14.015625 -21.546875 C 13.816406 -21.929688 13.71875 -22.285156 13.71875 -22.609375 C 13.71875 -22.898438 13.847656 -23.222656 14.109375 -23.578125 Z M 8.40625 -23.578125 "/></g></g></g><g fill="#000000" fill-opacity="1"><g transform="translate(35.413485, 34.693483)"><g><path d="M 22.703125 0 L 1.296875 0 L 1.296875 -1.015625 L 2.65625 -1.015625 C 3.625 -1.015625 4.40625 -1.070312 5 -1.1875 C 5.59375 -1.300781 6.050781 -1.507812 6.375 -1.8125 C 6.695312 -2.113281 6.914062 -2.5625 7.03125 -3.15625 C 7.144531 -3.757812 7.203125 -4.539062 7.203125 -5.5 L 7.203125 -21.546875 C 7.203125 -22.515625 7.144531 -23.296875 7.03125 -23.890625 C 6.914062 -24.484375 6.695312 -24.929688 6.375 -25.234375 C 6.050781 -25.546875 5.59375 -25.757812 5 -25.875 C 4.40625 -25.988281 3.625 -26.046875 2.65625 -26.046875 L 1.296875 -26.046875 L 1.296875 -27.0625 L 22.703125 -27.0625 L 22.703125 -26.046875 L 21.359375 -26.046875 C 20.390625 -26.046875 19.601562 -25.988281 19 -25.875 C 18.40625 -25.757812 17.945312 -25.546875 17.625 -25.234375 C 17.3125 -24.929688 17.097656 -24.484375 16.984375 -23.890625 C 16.867188 -23.296875 16.8125 -22.515625 16.8125 -21.546875 L 16.8125 -5.5 C 16.8125 -4.539062 16.867188 -3.757812 16.984375 -3.15625 C 17.097656 -2.5625 17.3125 -2.113281 17.625 -1.8125 C 17.945312 -1.507812 18.40625 -1.300781 19 -1.1875 C 19.601562 -1.070312 20.390625 -1.015625 21.359375 -1.015625 L 22.703125 -1.015625 Z M 13.625 -24.0625 C 13.6875 -24.539062 13.765625 -24.898438 13.859375 -25.140625 C 13.960938 -25.390625 14.140625 -25.691406 14.390625 -26.046875 L 7.046875 -26.046875 C 7.367188 -25.785156 7.601562 -25.515625 7.75 -25.234375 C 7.894531 -24.960938 8.050781 -24.570312 8.21875 -24.0625 Z M 8.3125 -23.28125 C 8.34375 -23.03125 8.359375 -22.820312 8.359375 -22.65625 C 8.359375 -22.5 8.359375 -22.320312 8.359375 -22.125 L 8.359375 -21.15625 L 13.625 -21.15625 L 13.625 -23.28125 Z M 8.359375 -20.390625 L 8.359375 -18.265625 L 13.625 -18.265625 L 13.625 -20.390625 Z M 8.359375 -17.484375 L 8.359375 -15.359375 L 13.625 -15.359375 L 13.625 -17.484375 Z M 8.359375 -14.59375 L 8.359375 -12.46875 L 13.625 -12.46875 L 13.625 -14.59375 Z M 8.359375 -11.6875 L 8.359375 -9.5625 L 13.625 -9.5625 L 13.625 -11.6875 Z M 8.359375 -8.796875 L 8.359375 -6.671875 L 13.625 -6.671875 L 13.625 -8.796875 Z M 8.359375 -5.890625 L 8.359375 -4.921875 C 8.359375 -4.671875 8.359375 -4.476562 8.359375 -4.34375 C 8.359375 -4.21875 8.34375 -4.023438 8.3125 -3.765625 L 13.625 -3.765625 L 13.625 -5.890625 Z M 8.21875 -3 C 8.050781 -2.476562 7.894531 -2.082031 7.75 -1.8125 C 7.601562 -1.539062 7.367188 -1.273438 7.046875 -1.015625 L 14.390625 -1.015625 C 14.140625 -1.367188 13.960938 -1.664062 13.859375 -1.90625 C 13.765625 -2.144531 13.6875 -2.507812 13.625 -3 Z M 8.21875 -3 "/></g></g></g><g fill="#000000" fill-opacity="1"><g transform="translate(59.4251, 34.693483)"><g><path d="M 33 -12.3125 L 33 -18.796875 C 33 -21.148438 32.488281 -22.945312 31.46875 -24.1875 C 30.457031 -25.425781 28.96875 -26.046875 27 -26.046875 L 27 -27.0625 L 40.828125 -27.0625 L 40.828125 -26.046875 C 38.671875 -25.972656 37.039062 -25.320312 35.9375 -24.09375 C 34.84375 -22.875 34.296875 -21.109375 34.296875 -18.796875 L 34.296875 0.875 L 33.390625 0.875 L 9.125 -21.78125 L 9.125 -8.265625 C 9.125 -3.492188 11.125 -1.078125 15.125 -1.015625 L 15.125 0 L 1.296875 0 L 1.296875 -1.015625 C 2.367188 -1.046875 3.222656 -1.164062 3.859375 -1.375 C 4.503906 -1.582031 5.101562 -1.945312 5.65625 -2.46875 C 7.101562 -3.78125 7.828125 -5.710938 7.828125 -8.265625 L 7.828125 -22.859375 L 6.90625 -23.71875 C 6.75 -23.851562 6.523438 -24.023438 6.234375 -24.234375 C 5.941406 -24.441406 5.640625 -24.640625 5.328125 -24.828125 C 5.023438 -25.023438 4.722656 -25.210938 4.421875 -25.390625 C 4.117188 -25.566406 3.882812 -25.6875 3.71875 -25.75 C 3.53125 -25.8125 3.25 -25.875 2.875 -25.9375 C 2.5 -26.007812 2.132812 -26.046875 1.78125 -26.046875 L 1.546875 -26.046875 L 1.546875 -27.0625 L 17.15625 -27.0625 Z M 13.484375 -26.046875 L 5.171875 -26.046875 C 5.429688 -25.878906 5.789062 -25.640625 6.25 -25.328125 C 6.71875 -25.023438 7.273438 -24.601562 7.921875 -24.0625 L 15.5625 -24.0625 Z M 8.890625 -23.28125 L 11.109375 -21.15625 L 18.65625 -21.15625 L 16.421875 -23.28125 Z M 11.984375 -20.390625 L 14.203125 -18.265625 L 21.78125 -18.265625 L 19.515625 -20.390625 Z M 15.078125 -17.484375 L 17.34375 -15.359375 L 24.875 -15.359375 L 22.609375 -17.484375 Z M 18.21875 -14.59375 L 20.4375 -12.46875 L 27.96875 -12.46875 L 25.75 -14.59375 Z M 21.3125 -11.6875 L 23.578125 -9.5625 L 31.109375 -9.5625 L 28.84375 -11.6875 Z M 24.453125 -8.796875 L 26.671875 -6.671875 L 33.28125 -6.671875 L 33.28125 -7.53125 L 31.9375 -8.796875 Z M 27.53125 -5.890625 L 29.765625 -3.765625 L 33.28125 -3.765625 L 33.28125 -5.890625 Z M 30.625 -3 L 33.28125 -0.53125 L 33.28125 -3 Z M 6.515625 -1.828125 C 6.234375 -1.578125 6.035156 -1.410156 5.921875 -1.328125 C 5.804688 -1.242188 5.648438 -1.140625 5.453125 -1.015625 L 9.234375 -1.015625 C 9.097656 -1.171875 9 -1.289062 8.9375 -1.375 C 8.875 -1.457031 8.757812 -1.609375 8.59375 -1.828125 Z M 8.265625 -2.65625 C 8.160156 -2.914062 8.09375 -3.132812 8.0625 -3.3125 C 8.03125 -3.488281 8 -3.6875 7.96875 -3.90625 C 7.90625 -3.71875 7.820312 -3.550781 7.71875 -3.40625 C 7.625 -3.257812 7.453125 -3.007812 7.203125 -2.65625 Z M 34.0625 -25.359375 C 34.1875 -25.523438 34.265625 -25.644531 34.296875 -25.71875 C 34.328125 -25.800781 34.425781 -25.910156 34.59375 -26.046875 L 30.78125 -26.046875 C 30.96875 -25.910156 31.101562 -25.8125 31.1875 -25.75 C 31.269531 -25.6875 31.4375 -25.554688 31.6875 -25.359375 Z M 32.46875 -24.546875 C 32.625 -24.316406 32.742188 -24.132812 32.828125 -24 C 32.910156 -23.875 33.046875 -23.632812 33.234375 -23.28125 C 33.296875 -23.539062 33.351562 -23.742188 33.40625 -23.890625 C 33.457031 -24.035156 33.546875 -24.253906 33.671875 -24.546875 Z M 32.46875 -24.546875 "/></g></g></g><g fill="#000000" fill-opacity="1"><g transform="translate(101.2159, 34.693483)"><g><path d="M 33 -12.3125 L 33 -18.796875 C 33 -21.148438 32.488281 -22.945312 31.46875 -24.1875 C 30.457031 -25.425781 28.96875 -26.046875 27 -26.046875 L 27 -27.0625 L 40.828125 -27.0625 L 40.828125 -26.046875 C 38.671875 -25.972656 37.039062 -25.320312 35.9375 -24.09375 C 34.84375 -22.875 34.296875 -21.109375 34.296875 -18.796875 L 34.296875 0.875 L 33.390625 0.875 L 9.125 -21.78125 L 9.125 -8.265625 C 9.125 -3.492188 11.125 -1.078125 15.125 -1.015625 L 15.125 0 L 1.296875 0 L 1.296875 -1.015625 C 2.367188 -1.046875 3.222656 -1.164062 3.859375 -1.375 C 4.503906 -1.582031 5.101562 -1.945312 5.65625 -2.46875 C 7.101562 -3.78125 7.828125 -5.710938 7.828125 -8.265625 L 7.828125 -22.859375 L 6.90625 -23.71875 C 6.75 -23.851562 6.523438 -24.023438 6.234375 -24.234375 C 5.941406 -24.441406 5.640625 -24.640625 5.328125 -24.828125 C 5.023438 -25.023438 4.722656 -25.210938 4.421875 -25.390625 C 4.117188 -25.566406 3.882812 -25.6875 3.71875 -25.75 C 3.53125 -25.8125 3.25 -25.875 2.875 -25.9375 C 2.5 -26.007812 2.132812 -26.046875 1.78125 -26.046875 L 1.546875 -26.046875 L 1.546875 -27.0625 L 17.15625 -27.0625 Z M 13.484375 -26.046875 L 5.171875 -26.046875 C 5.429688 -25.878906 5.789062 -25.640625 6.25 -25.328125 C 6.71875 -25.023438 7.273438 -24.601562 7.921875 -24.0625 L 15.5625 -24.0625 Z M 8.890625 -23.28125 L 11.109375 -21.15625 L 18.65625 -21.15625 L 16.421875 -23.28125 Z M 11.984375 -20.390625 L 14.203125 -18.265625 L 21.78125 -18.265625 L 19.515625 -20.390625 Z M 15.078125 -17.484375 L 17.34375 -15.359375 L 24.875 -15.359375 L 22.609375 -17.484375 Z M 18.21875 -14.59375 L 20.4375 -12.46875 L 27.96875 -12.46875 L 25.75 -14.59375 Z M 21.3125 -11.6875 L 23.578125 -9.5625 L 31.109375 -9.5625 L 28.84375 -11.6875 Z M 24.453125 -8.796875 L 26.671875 -6.671875 L 33.28125 -6.671875 L 33.28125 -7.53125 L 31.9375 -8.796875 Z M 27.53125 -5.890625 L 29.765625 -3.765625 L 33.28125 -3.765625 L 33.28125 -5.890625 Z M 30.625 -3 L 33.28125 -0.53125 L 33.28125 -3 Z M 6.515625 -1.828125 C 6.234375 -1.578125 6.035156 -1.410156 5.921875 -1.328125 C 5.804688 -1.242188 5.648438 -1.140625 5.453125 -1.015625 L 9.234375 -1.015625 C 9.097656 -1.171875 9 -1.289062 8.9375 -1.375 C 8.875 -1.457031 8.757812 -1.609375 8.59375 -1.828125 Z M 8.265625 -2.65625 C 8.160156 -2.914062 8.09375 -3.132812 8.0625 -3.3125 C 8.03125 -3.488281 8 -3.6875 7.96875 -3.90625 C 7.90625 -3.71875 7.820312 -3.550781 7.71875 -3.40625 C 7.625 -3.257812 7.453125 -3.007812 7.203125 -2.65625 Z M 34.0625 -25.359375 C 34.1875 -25.523438 34.265625 -25.644531 34.296875 -25.71875 C 34.328125 -25.800781 34.425781 -25.910156 34.59375 -26.046875 L 30.78125 -26.046875 C 30.96875 -25.910156 31.101562 -25.8125 31.1875 -25.75 C 31.269531 -25.6875 31.4375 -25.554688 31.6875 -25.359375 Z M 32.46875 -24.546875 C 32.625 -24.316406 32.742188 -24.132812 32.828125 -24 C 32.910156 -23.875 33.046875 -23.632812 33.234375 -23.28125 C 33.296875 -23.539062 33.351562 -23.742188 33.40625 -23.890625 C 33.457031 -24.035156 33.546875 -24.253906 33.671875 -24.546875 Z M 32.46875 -24.546875 "/></g></g></g><g fill="#000000" fill-opacity="1"><g transform="translate(143.0067, 34.693483)"><g><path d="M 26.234375 -18.3125 C 27.234375 -19.695312 27.734375 -21.050781 27.734375 -22.375 C 27.734375 -23.5 27.351562 -24.390625 26.59375 -25.046875 C 25.832031 -25.710938 24.828125 -26.046875 23.578125 -26.046875 L 22.75 -26.046875 L 22.75 -27.0625 L 37.875 -27.0625 L 37.875 -26.046875 C 36.132812 -25.972656 34.398438 -25.285156 32.671875 -23.984375 C 30.953125 -22.679688 29.113281 -20.613281 27.15625 -17.78125 L 23.1875 -12.171875 L 23.1875 -5.5 C 23.1875 -4.539062 23.242188 -3.757812 23.359375 -3.15625 C 23.472656 -2.5625 23.691406 -2.113281 24.015625 -1.8125 C 24.335938 -1.507812 24.796875 -1.300781 25.390625 -1.1875 C 25.984375 -1.070312 26.765625 -1.015625 27.734375 -1.015625 L 29.078125 -1.015625 L 29.078125 0 L 7.6875 0 L 7.6875 -1.015625 L 9.03125 -1.015625 C 10 -1.015625 10.78125 -1.070312 11.375 -1.1875 C 11.96875 -1.300781 12.425781 -1.507812 12.75 -1.8125 C 13.070312 -2.113281 13.289062 -2.5625 13.40625 -3.15625 C 13.519531 -3.757812 13.578125 -4.539062 13.578125 -5.5 L 13.578125 -10.140625 L 4.34375 -23.28125 C 3.03125 -25.125 1.375 -26.046875 -0.625 -26.046875 L -1.59375 -26.046875 L -1.59375 -27.0625 L 19.953125 -27.0625 L 19.953125 -26.046875 L 18.453125 -26.046875 C 16.390625 -26.046875 15.359375 -25.53125 15.359375 -24.5 C 15.359375 -24.070312 15.601562 -23.523438 16.09375 -22.859375 L 22.796875 -13.53125 Z M 30.296875 -24.0625 C 30.648438 -24.445312 30.953125 -24.785156 31.203125 -25.078125 C 31.460938 -25.367188 31.800781 -25.691406 32.21875 -26.046875 L 27.109375 -26.046875 C 27.523438 -25.617188 27.8125 -25.289062 27.96875 -25.0625 C 28.132812 -24.84375 28.296875 -24.507812 28.453125 -24.0625 Z M 28.65625 -23.28125 C 28.71875 -23.03125 28.75 -22.847656 28.75 -22.734375 C 28.75 -22.617188 28.765625 -22.414062 28.796875 -22.125 C 28.984375 -22.414062 29.117188 -22.617188 29.203125 -22.734375 C 29.285156 -22.847656 29.421875 -23.03125 29.609375 -23.28125 Z M 13.859375 -11.6875 L 14.734375 -10.4375 L 14.734375 -9.5625 L 20 -9.5625 L 20 -11.6875 Z M 14.734375 -8.796875 L 14.734375 -6.671875 L 20 -6.671875 L 20 -8.796875 Z M 14.734375 -5.890625 L 14.734375 -4.921875 C 14.734375 -4.671875 14.734375 -4.476562 14.734375 -4.34375 C 14.734375 -4.21875 14.71875 -4.023438 14.6875 -3.765625 L 20 -3.765625 L 20 -5.890625 Z M 14.546875 -3 C 14.410156 -2.476562 14.269531 -2.082031 14.125 -1.8125 C 13.976562 -1.539062 13.75 -1.273438 13.4375 -1.015625 L 20.78125 -1.015625 C 20.519531 -1.367188 20.335938 -1.664062 20.234375 -1.90625 C 20.140625 -2.144531 20.0625 -2.507812 20 -3 Z M 19.46875 -12.46875 L 17.96875 -14.59375 L 11.78125 -14.59375 L 13.28125 -12.46875 Z M 17.390625 -15.359375 L 15.890625 -17.484375 L 9.703125 -17.484375 L 11.203125 -15.359375 Z M 15.3125 -18.265625 L 13.859375 -20.390625 L 7.6875 -20.390625 L 9.171875 -18.265625 Z M 13.28125 -21.15625 L 11.84375 -23.28125 L 5.609375 -23.28125 L 7.109375 -21.15625 Z M 11.5 -24.0625 C 11.46875 -24.21875 11.453125 -24.410156 11.453125 -24.640625 C 11.453125 -24.898438 11.5 -25.132812 11.59375 -25.34375 C 11.6875 -25.550781 11.863281 -25.785156 12.125 -26.046875 L 3.046875 -26.046875 C 3.398438 -25.816406 3.742188 -25.539062 4.078125 -25.21875 C 4.421875 -24.894531 4.738281 -24.507812 5.03125 -24.0625 Z M 11.5 -24.0625 "/></g></g></g><g fill="#000000" fill-opacity="1"><g transform="translate(179.241499, 34.693483)"><g/></g></g><g fill="#000000" fill-opacity="1"><g transform="translate(191.319754, 34.693483)"><g><path d="M 1.59375 0 L 1.59375 -32.21875 L 33.8125 -32.21875 L 33.8125 0 Z M 32.796875 -31.203125 L 2.609375 -31.203125 L 2.609375 -1.015625 L 32.796875 -1.015625 Z M 3 -1.40625 L 3 -30.828125 L 32.421875 -30.828125 L 32.421875 -1.40625 Z M 20.625 -23.578125 L 31.984375 -23.578125 L 31.984375 -24.59375 L 3.4375 -24.59375 L 3.4375 -23.578125 L 7.875 -23.578125 L 7.875 -24.15625 L 20.625 -24.15625 Z M 31.984375 -22.125 L 31.984375 -23.140625 L 17.6875 -23.140625 C 17.519531 -22.984375 17.40625 -22.835938 17.34375 -22.703125 C 17.28125 -22.578125 17.21875 -22.382812 17.15625 -22.125 Z M 11.359375 -22.125 C 11.285156 -22.382812 11.21875 -22.578125 11.15625 -22.703125 C 11.09375 -22.835938 10.984375 -22.984375 10.828125 -23.140625 L 3.4375 -23.140625 L 3.4375 -22.125 Z M 31.984375 -20.671875 L 31.984375 -21.6875 L 17.15625 -21.6875 C 17.125 -21.5 17.109375 -21.347656 17.109375 -21.234375 C 17.109375 -21.117188 17.109375 -21.015625 17.109375 -20.921875 L 17.109375 -20.671875 Z M 11.40625 -20.921875 L 11.40625 -21.6875 L 3.4375 -21.6875 L 3.4375 -20.671875 L 11.40625 -20.671875 Z M 31.984375 -19.234375 L 31.984375 -20.25 L 17.109375 -20.25 L 17.109375 -19.234375 Z M 11.40625 -20.25 L 3.4375 -20.25 L 3.4375 -19.234375 L 11.40625 -19.234375 Z M 31.984375 -17.78125 L 31.984375 -18.796875 L 17.109375 -18.796875 L 17.109375 -17.78125 Z M 11.40625 -18.796875 L 3.4375 -18.796875 L 3.4375 -17.78125 L 11.40625 -17.78125 Z M 31.984375 -16.328125 L 31.984375 -17.34375 L 17.109375 -17.34375 L 17.109375 -16.328125 Z M 11.40625 -17.34375 L 3.4375 -17.34375 L 3.4375 -16.328125 L 11.40625 -16.328125 Z M 31.984375 -14.875 L 31.984375 -15.890625 L 17.109375 -15.890625 L 17.109375 -14.875 Z M 11.40625 -15.890625 L 3.4375 -15.890625 L 3.4375 -14.875 L 11.40625 -14.875 Z M 31.984375 -13.4375 L 31.984375 -14.453125 L 17.109375 -14.453125 L 17.109375 -13.4375 L 27.203125 -13.4375 C 27.296875 -13.53125 27.359375 -13.597656 27.390625 -13.640625 C 27.421875 -13.691406 27.503906 -13.800781 27.640625 -13.96875 L 28.171875 -13.96875 L 28.171875 -13.4375 Z M 11.40625 -14.453125 L 3.4375 -14.453125 L 3.4375 -13.4375 L 11.40625 -13.4375 Z M 31.984375 -11.984375 L 31.984375 -13 L 28.171875 -13 L 28.171875 -11.984375 Z M 25.84375 -11.984375 C 26.164062 -12.273438 26.503906 -12.613281 26.859375 -13 L 17.109375 -13 L 17.109375 -11.984375 Z M 11.40625 -13 L 3.4375 -13 L 3.4375 -11.984375 L 11.40625 -11.984375 Z M 31.984375 -10.53125 L 31.984375 -11.546875 L 28.171875 -11.546875 L 28.171875 -10.53125 Z M 24.203125 -10.53125 C 24.617188 -10.820312 25.019531 -11.160156 25.40625 -11.546875 L 17.109375 -11.546875 L 17.109375 -10.53125 Z M 11.40625 -11.3125 L 11.40625 -11.546875 L 3.4375 -11.546875 L 3.4375 -10.53125 L 11.40625 -10.53125 Z M 31.984375 -9.078125 L 31.984375 -10.09375 L 28.171875 -10.09375 L 28.171875 -9.078125 Z M 21.78125 -9.078125 C 22.101562 -9.210938 22.398438 -9.347656 22.671875 -9.484375 C 22.953125 -9.628906 23.285156 -9.832031 23.671875 -10.09375 L 17.109375 -10.09375 L 17.109375 -9.078125 Z M 10.828125 -9.078125 C 11.015625 -9.242188 11.128906 -9.390625 11.171875 -9.515625 C 11.222656 -9.640625 11.285156 -9.832031 11.359375 -10.09375 L 3.4375 -10.09375 L 3.4375 -9.078125 Z M 3.4375 -7.640625 L 31.984375 -7.640625 L 31.984375 -8.640625 L 28.171875 -8.640625 L 28.171875 -8.0625 L 7.875 -8.0625 L 7.875 -8.640625 L 3.4375 -8.640625 Z M 3.4375 -30.390625 L 3.4375 -29.375 L 31.984375 -29.375 L 31.984375 -30.390625 Z M 3.4375 -28.9375 L 3.4375 -27.921875 L 31.984375 -27.921875 L 31.984375 -28.9375 Z M 3.4375 -27.484375 L 3.4375 -26.46875 L 31.984375 -26.46875 L 31.984375 -27.484375 Z M 3.4375 -26.046875 L 3.4375 -25.03125 L 31.984375 -25.03125 L 31.984375 -26.046875 Z M 3.4375 -7.203125 L 3.4375 -6.1875 L 31.984375 -6.1875 L 31.984375 -7.203125 Z M 3.4375 -5.75 L 3.4375 -4.734375 L 31.984375 -4.734375 L 31.984375 -5.75 Z M 3.4375 -4.296875 L 3.4375 -3.28125 L 31.984375 -3.28125 L 31.984375 -4.296875 Z M 3.4375 -2.84375 L 3.4375 -1.828125 L 31.984375 -1.828125 L 31.984375 -2.84375 Z M 11.203125 -23.578125 C 11.753906 -23.222656 12.03125 -22.445312 12.03125 -21.25 L 12.03125 -10.96875 C 12.03125 -10.320312 11.972656 -9.835938 11.859375 -9.515625 C 11.742188 -9.191406 11.523438 -8.882812 11.203125 -8.59375 L 15.265625 -8.59375 L 15.265625 -21.640625 C 15.265625 -22.253906 15.285156 -22.664062 15.328125 -22.875 C 15.378906 -23.082031 15.519531 -23.316406 15.75 -23.578125 Z M 26.46875 -11.890625 C 26.1875 -11.566406 25.859375 -11.234375 25.484375 -10.890625 C 25.109375 -10.554688 24.71875 -10.234375 24.3125 -9.921875 C 23.914062 -9.617188 23.515625 -9.351562 23.109375 -9.125 C 22.710938 -8.90625 22.351562 -8.726562 22.03125 -8.59375 L 26.46875 -8.59375 Z M 26.46875 -11.890625 "/></g></g></g><g fill="#000000" fill-opacity="1"><g transform="translate(226.733231, 34.693483)"><g><path d="M 19.5625 -27.921875 C 22.332031 -27.921875 24.867188 -27.566406 27.171875 -26.859375 C 29.472656 -26.148438 31.445312 -25.144531 33.09375 -23.84375 C 34.738281 -22.539062 36.007812 -20.984375 36.90625 -19.171875 C 37.8125 -17.367188 38.265625 -15.375 38.265625 -13.1875 C 38.265625 -10.96875 37.753906 -8.875 36.734375 -6.90625 C 35.722656 -4.945312 34.332031 -3.351562 32.5625 -2.125 C 31.050781 -1.09375 29.335938 -0.335938 27.421875 0.140625 C 25.503906 0.628906 23.253906 0.875 20.671875 0.875 C 17.679688 0.875 15.101562 0.566406 12.9375 -0.046875 C 10.78125 -0.660156 8.816406 -1.660156 7.046875 -3.046875 C 5.273438 -4.429688 3.921875 -6.015625 2.984375 -7.796875 C 2.054688 -9.585938 1.59375 -11.515625 1.59375 -13.578125 C 1.59375 -15.796875 2.097656 -17.851562 3.109375 -19.75 C 4.128906 -21.65625 5.570312 -23.269531 7.4375 -24.59375 C 8.3125 -25.164062 9.179688 -25.671875 10.046875 -26.109375 C 10.921875 -26.546875 11.835938 -26.890625 12.796875 -27.140625 C 13.765625 -27.398438 14.800781 -27.59375 15.90625 -27.71875 C 17.019531 -27.851562 18.238281 -27.921875 19.5625 -27.921875 Z M 29.515625 -24.0625 C 28.710938 -24.707031 27.898438 -25.222656 27.078125 -25.609375 C 26.253906 -25.992188 25.28125 -26.332031 24.15625 -26.625 C 24.601562 -26.164062 24.960938 -25.75 25.234375 -25.375 C 25.515625 -25.007812 25.816406 -24.570312 26.140625 -24.0625 Z M 26.578125 -23.28125 C 26.703125 -23 26.828125 -22.675781 26.953125 -22.3125 C 27.085938 -21.957031 27.234375 -21.570312 27.390625 -21.15625 L 32.125 -21.15625 C 31.832031 -21.613281 31.554688 -21.992188 31.296875 -22.296875 C 31.046875 -22.597656 30.742188 -22.925781 30.390625 -23.28125 Z M 27.59375 -20.390625 C 27.71875 -19.972656 27.8125 -19.609375 27.875 -19.296875 C 27.9375 -18.992188 28 -18.648438 28.0625 -18.265625 L 33.625 -18.265625 C 33.46875 -18.679688 33.316406 -19.039062 33.171875 -19.34375 C 33.023438 -19.65625 32.835938 -20.003906 32.609375 -20.390625 Z M 28.171875 -17.484375 C 28.234375 -17.128906 28.269531 -16.820312 28.28125 -16.5625 C 28.300781 -16.3125 28.328125 -15.910156 28.359375 -15.359375 L 34.453125 -15.359375 C 34.378906 -15.773438 34.300781 -16.128906 34.21875 -16.421875 C 34.144531 -16.710938 34.046875 -17.066406 33.921875 -17.484375 Z M 28.40625 -14.59375 C 28.4375 -14.269531 28.453125 -14.007812 28.453125 -13.8125 C 28.453125 -13.625 28.453125 -13.398438 28.453125 -13.140625 L 28.453125 -12.46875 L 34.59375 -12.46875 L 34.59375 -13.28125 C 34.59375 -13.539062 34.59375 -13.75 34.59375 -13.90625 C 34.59375 -14.070312 34.578125 -14.300781 34.546875 -14.59375 Z M 28.40625 -11.6875 C 28.375 -11.144531 28.359375 -10.742188 28.359375 -10.484375 C 28.359375 -10.222656 28.328125 -9.914062 28.265625 -9.5625 L 34.0625 -9.5625 C 34.1875 -9.976562 34.273438 -10.332031 34.328125 -10.625 C 34.378906 -10.914062 34.4375 -11.269531 34.5 -11.6875 Z M 28.171875 -8.796875 C 28.097656 -8.335938 28.03125 -7.960938 27.96875 -7.671875 C 27.90625 -7.390625 27.828125 -7.054688 27.734375 -6.671875 L 32.796875 -6.671875 C 33.023438 -7.085938 33.203125 -7.429688 33.328125 -7.703125 C 33.460938 -7.972656 33.609375 -8.335938 33.765625 -8.796875 Z M 27.484375 -5.890625 C 27.359375 -5.441406 27.242188 -5.085938 27.140625 -4.828125 C 27.046875 -4.566406 26.90625 -4.210938 26.71875 -3.765625 L 30.625 -3.765625 C 30.976562 -4.148438 31.273438 -4.492188 31.515625 -4.796875 C 31.765625 -5.109375 32.035156 -5.472656 32.328125 -5.890625 Z M 26.28125 -3 C 25.957031 -2.414062 25.640625 -1.929688 25.328125 -1.546875 C 25.023438 -1.160156 24.601562 -0.722656 24.0625 -0.234375 C 25.09375 -0.398438 26.066406 -0.691406 26.984375 -1.109375 C 27.898438 -1.523438 28.828125 -2.15625 29.765625 -3 Z M 12.46875 -24.0625 C 12.820312 -24.507812 13.148438 -24.898438 13.453125 -25.234375 C 13.753906 -25.578125 14.210938 -26.039062 14.828125 -26.625 C 12.484375 -26.238281 10.359375 -25.382812 8.453125 -24.0625 Z M 7.4375 -23.28125 C 6.988281 -22.925781 6.625 -22.597656 6.34375 -22.296875 C 6.070312 -21.992188 5.757812 -21.613281 5.40625 -21.15625 L 10.71875 -21.15625 C 10.945312 -21.613281 11.132812 -21.976562 11.28125 -22.25 C 11.425781 -22.519531 11.628906 -22.863281 11.890625 -23.28125 Z M 4.828125 -20.390625 C 4.410156 -19.679688 4.054688 -18.972656 3.765625 -18.265625 L 9.65625 -18.265625 C 9.757812 -18.679688 9.859375 -19.039062 9.953125 -19.34375 C 10.046875 -19.65625 10.175781 -20.003906 10.34375 -20.390625 Z M 3.4375 -17.484375 C 3.300781 -17.097656 3.203125 -16.757812 3.140625 -16.46875 C 3.078125 -16.1875 3.015625 -15.816406 2.953125 -15.359375 L 9.125 -15.359375 C 9.195312 -15.816406 9.25 -16.1875 9.28125 -16.46875 C 9.3125 -16.757812 9.375 -17.097656 9.46875 -17.484375 Z M 2.84375 -14.59375 C 2.8125 -14.363281 2.796875 -14.160156 2.796875 -13.984375 C 2.796875 -13.804688 2.796875 -13.671875 2.796875 -13.578125 C 2.796875 -13.410156 2.796875 -13.242188 2.796875 -13.078125 C 2.796875 -12.921875 2.832031 -12.71875 2.90625 -12.46875 L 9.078125 -12.46875 C 9.046875 -12.757812 9.03125 -12.984375 9.03125 -13.140625 C 9.03125 -13.296875 9.03125 -13.457031 9.03125 -13.625 C 9.03125 -13.71875 9.03125 -13.835938 9.03125 -13.984375 C 9.03125 -14.128906 9.046875 -14.332031 9.078125 -14.59375 Z M 3 -11.6875 C 3.0625 -11.238281 3.125 -10.875 3.1875 -10.59375 C 3.25 -10.320312 3.363281 -9.976562 3.53125 -9.5625 L 9.46875 -9.5625 C 9.40625 -9.945312 9.347656 -10.285156 9.296875 -10.578125 C 9.253906 -10.867188 9.195312 -11.238281 9.125 -11.6875 Z M 3.859375 -8.796875 C 4.054688 -8.335938 4.234375 -7.960938 4.390625 -7.671875 C 4.554688 -7.390625 4.769531 -7.054688 5.03125 -6.671875 L 10.34375 -6.671875 C 10.175781 -7.054688 10.050781 -7.398438 9.96875 -7.703125 C 9.894531 -8.015625 9.789062 -8.378906 9.65625 -8.796875 Z M 5.609375 -5.890625 C 5.960938 -5.441406 6.289062 -5.0625 6.59375 -4.75 C 6.894531 -4.445312 7.257812 -4.117188 7.6875 -3.765625 L 11.84375 -3.765625 C 11.582031 -4.179688 11.367188 -4.535156 11.203125 -4.828125 C 11.046875 -5.117188 10.882812 -5.472656 10.71875 -5.890625 Z M 8.796875 -3 C 9.722656 -2.351562 10.691406 -1.828125 11.703125 -1.421875 C 12.722656 -1.023438 13.703125 -0.757812 14.640625 -0.625 C 14.085938 -1.113281 13.664062 -1.515625 13.375 -1.828125 C 13.09375 -2.148438 12.773438 -2.539062 12.421875 -3 Z M 20 -26.90625 C 17.550781 -26.90625 15.734375 -25.488281 14.546875 -22.65625 C 13.992188 -21.332031 13.5625 -19.890625 13.25 -18.328125 C 12.945312 -16.765625 12.796875 -15.195312 12.796875 -13.625 C 12.796875 -12.039062 12.941406 -10.441406 13.234375 -8.828125 C 13.523438 -7.222656 13.945312 -5.757812 14.5 -4.4375 C 15.101562 -2.925781 15.851562 -1.832031 16.75 -1.15625 C 17.65625 -0.476562 18.820312 -0.140625 20.25 -0.140625 C 22.46875 -0.140625 24.195312 -1.257812 25.4375 -3.5 C 26.675781 -5.738281 27.296875 -8.890625 27.296875 -12.953125 C 27.296875 -14.816406 27.15625 -16.578125 26.875 -18.234375 C 26.601562 -19.890625 26.210938 -21.332031 25.703125 -22.5625 C 25.085938 -24.070312 24.320312 -25.171875 23.40625 -25.859375 C 22.488281 -26.554688 21.351562 -26.90625 20 -26.90625 Z M 20 -26.90625 "/></g></g></g><g fill="#000000" fill-opacity="1"><g transform="translate(266.639817, 34.693483)"><g><path d="M 25.21875 -27.0625 C 27.46875 -27.0625 29.273438 -26.9375 30.640625 -26.6875 C 32.015625 -26.445312 33.234375 -26.019531 34.296875 -25.40625 C 35.359375 -24.832031 36.226562 -23.957031 36.90625 -22.78125 C 37.582031 -21.601562 37.921875 -20.40625 37.921875 -19.1875 C 37.921875 -17.957031 37.582031 -16.757812 36.90625 -15.59375 C 36.226562 -14.4375 35.359375 -13.554688 34.296875 -12.953125 C 33.234375 -12.367188 32 -11.945312 30.59375 -11.6875 C 29.195312 -11.4375 27.40625 -11.3125 25.21875 -11.3125 L 16.8125 -11.3125 L 16.8125 -5.5 C 16.8125 -4.539062 16.867188 -3.757812 16.984375 -3.15625 C 17.097656 -2.5625 17.3125 -2.113281 17.625 -1.8125 C 17.945312 -1.507812 18.40625 -1.300781 19 -1.1875 C 19.601562 -1.070312 20.390625 -1.015625 21.359375 -1.015625 L 22.703125 -1.015625 L 22.703125 0 L 1.296875 0 L 1.296875 -1.015625 L 2.65625 -1.015625 C 3.625 -1.015625 4.40625 -1.070312 5 -1.1875 C 5.59375 -1.300781 6.050781 -1.507812 6.375 -1.8125 C 6.695312 -2.113281 6.914062 -2.5625 7.03125 -3.15625 C 7.144531 -3.757812 7.203125 -4.539062 7.203125 -5.5 L 7.203125 -21.546875 C 7.203125 -22.515625 7.144531 -23.296875 7.03125 -23.890625 C 6.914062 -24.484375 6.695312 -24.929688 6.375 -25.234375 C 6.050781 -25.546875 5.59375 -25.757812 5 -25.875 C 4.40625 -25.988281 3.625 -26.046875 2.65625 -26.046875 L 1.296875 -26.046875 L 1.296875 -27.0625 Z M 32.125 -24.0625 C 31.738281 -24.414062 31.359375 -24.710938 30.984375 -24.953125 C 30.617188 -25.191406 30.207031 -25.382812 29.75 -25.53125 C 29.300781 -25.675781 28.785156 -25.785156 28.203125 -25.859375 C 27.628906 -25.941406 26.941406 -26.019531 26.140625 -26.09375 C 26.785156 -25.988281 27.476562 -25.3125 28.21875 -24.0625 Z M 28.59375 -23.28125 C 28.757812 -22.832031 28.875 -22.492188 28.9375 -22.265625 C 29 -22.046875 29.0625 -21.675781 29.125 -21.15625 L 34.015625 -21.15625 C 33.847656 -21.894531 33.476562 -22.601562 32.90625 -23.28125 Z M 29.1875 -20.390625 C 29.25 -20.066406 29.28125 -19.816406 29.28125 -19.640625 C 29.28125 -19.460938 29.28125 -19.273438 29.28125 -19.078125 C 29.28125 -19.015625 29.28125 -18.910156 29.28125 -18.765625 C 29.28125 -18.617188 29.265625 -18.453125 29.234375 -18.265625 L 34.25 -18.265625 C 34.28125 -18.484375 34.296875 -18.671875 34.296875 -18.828125 C 34.296875 -18.992188 34.296875 -19.128906 34.296875 -19.234375 C 34.296875 -19.390625 34.296875 -19.554688 34.296875 -19.734375 C 34.296875 -19.910156 34.265625 -20.128906 34.203125 -20.390625 Z M 29.1875 -17.484375 C 29.113281 -17.003906 29.046875 -16.617188 28.984375 -16.328125 C 28.921875 -16.035156 28.828125 -15.710938 28.703125 -15.359375 L 33.1875 -15.359375 C 33.445312 -15.773438 33.640625 -16.117188 33.765625 -16.390625 C 33.898438 -16.671875 34.015625 -17.035156 34.109375 -17.484375 Z M 28.359375 -14.59375 C 27.804688 -13.625 27.113281 -12.847656 26.28125 -12.265625 C 27.632812 -12.234375 28.789062 -12.398438 29.75 -12.765625 C 30.71875 -13.140625 31.625 -13.75 32.46875 -14.59375 Z M 8.21875 -3 C 8.050781 -2.476562 7.894531 -2.082031 7.75 -1.8125 C 7.601562 -1.539062 7.367188 -1.273438 7.046875 -1.015625 L 14.390625 -1.015625 C 14.140625 -1.367188 13.960938 -1.664062 13.859375 -1.90625 C 13.765625 -2.144531 13.6875 -2.507812 13.625 -3 Z M 13.625 -3.765625 L 13.625 -5.890625 L 8.359375 -5.890625 L 8.359375 -4.921875 C 8.359375 -4.671875 8.359375 -4.476562 8.359375 -4.34375 C 8.359375 -4.21875 8.34375 -4.023438 8.3125 -3.765625 Z M 13.625 -6.671875 L 13.625 -8.796875 L 8.359375 -8.796875 L 8.359375 -6.671875 Z M 13.625 -9.5625 L 13.625 -11.6875 L 8.359375 -11.6875 L 8.359375 -9.5625 Z M 13.625 -12.46875 L 13.625 -14.59375 L 8.359375 -14.59375 L 8.359375 -12.46875 Z M 13.625 -15.359375 L 13.625 -17.484375 L 8.359375 -17.484375 L 8.359375 -15.359375 Z M 13.625 -18.265625 L 13.625 -20.390625 L 8.359375 -20.390625 L 8.359375 -18.265625 Z M 13.625 -21.15625 L 13.625 -23.28125 L 8.3125 -23.28125 C 8.34375 -23.03125 8.359375 -22.820312 8.359375 -22.65625 C 8.359375 -22.5 8.359375 -22.320312 8.359375 -22.125 L 8.359375 -21.15625 Z M 13.625 -24.0625 C 13.6875 -24.539062 13.765625 -24.910156 13.859375 -25.171875 C 13.960938 -25.429688 14.160156 -25.753906 14.453125 -26.140625 L 6.953125 -26.140625 C 7.304688 -25.847656 7.5625 -25.5625 7.71875 -25.28125 C 7.882812 -25.007812 8.050781 -24.601562 8.21875 -24.0625 Z M 22.609375 -12.265625 C 24.546875 -12.335938 25.945312 -12.910156 26.8125 -13.984375 C 27.6875 -15.066406 28.125 -16.78125 28.125 -19.125 C 28.125 -23.28125 26.703125 -25.550781 23.859375 -25.9375 C 23.671875 -25.96875 23.398438 -25.992188 23.046875 -26.015625 C 22.691406 -26.035156 22.320312 -26.046875 21.9375 -26.046875 C 21.550781 -26.046875 21.179688 -26.035156 20.828125 -26.015625 C 20.472656 -25.992188 20.179688 -25.96875 19.953125 -25.9375 C 19.335938 -25.875 18.828125 -25.753906 18.421875 -25.578125 C 18.023438 -25.398438 17.707031 -25.140625 17.46875 -24.796875 C 17.226562 -24.460938 17.054688 -24.03125 16.953125 -23.5 C 16.859375 -22.96875 16.8125 -22.300781 16.8125 -21.5 L 16.8125 -12.21875 Z M 22.609375 -12.265625 "/></g></g></g><g fill="#000000" fill-opacity="1"><g transform="translate(304.56558, 34.693483)"><g><path d="M 35.03125 -17.203125 L 34.109375 -17.203125 C 33.078125 -18.554688 32.066406 -19.726562 31.078125 -20.71875 C 30.097656 -21.71875 29 -22.6875 27.78125 -23.625 C 27.164062 -24.101562 26.597656 -24.492188 26.078125 -24.796875 C 25.566406 -25.109375 25.050781 -25.351562 24.53125 -25.53125 C 24.019531 -25.707031 23.472656 -25.835938 22.890625 -25.921875 C 22.316406 -26.003906 21.675781 -26.046875 20.96875 -26.046875 L 16.8125 -26.046875 L 16.8125 -14.734375 L 17.828125 -14.734375 C 19.398438 -14.734375 20.78125 -15.101562 21.96875 -15.84375 C 23.164062 -16.582031 24.25 -17.773438 25.21875 -19.421875 L 26.28125 -19.421875 L 26.28125 -8.9375 L 25.21875 -8.9375 C 24.3125 -10.445312 23.210938 -11.617188 21.921875 -12.453125 C 20.640625 -13.296875 19.273438 -13.71875 17.828125 -13.71875 L 16.8125 -13.71875 L 16.8125 -1.015625 L 19.953125 -1.015625 C 21.597656 -1.015625 23.070312 -1.238281 24.375 -1.6875 C 25.675781 -2.144531 27.003906 -2.882812 28.359375 -3.90625 C 29.515625 -4.8125 30.59375 -5.753906 31.59375 -6.734375 C 32.59375 -7.722656 33.546875 -8.796875 34.453125 -9.953125 L 35.359375 -9.953125 L 35.359375 0 L 1.296875 0 L 1.296875 -1.015625 L 2.65625 -1.015625 C 3.625 -1.015625 4.40625 -1.070312 5 -1.1875 C 5.59375 -1.300781 6.050781 -1.507812 6.375 -1.8125 C 6.695312 -2.113281 6.914062 -2.5625 7.03125 -3.15625 C 7.144531 -3.757812 7.203125 -4.539062 7.203125 -5.5 L 7.203125 -21.546875 C 7.203125 -22.515625 7.144531 -23.296875 7.03125 -23.890625 C 6.914062 -24.484375 6.695312 -24.929688 6.375 -25.234375 C 6.050781 -25.546875 5.59375 -25.757812 5 -25.875 C 4.40625 -25.988281 3.625 -26.046875 2.65625 -26.046875 L 1.296875 -26.046875 L 1.296875 -27.0625 L 35.03125 -27.0625 Z M 32.125 -26.046875 L 25.890625 -26.046875 C 26.410156 -25.753906 26.863281 -25.46875 27.25 -25.1875 C 27.632812 -24.914062 28.132812 -24.539062 28.75 -24.0625 L 32.125 -24.0625 Z M 29.71875 -23.28125 C 30.164062 -22.894531 30.566406 -22.523438 30.921875 -22.171875 C 31.273438 -21.816406 31.675781 -21.382812 32.125 -20.875 L 32.125 -23.28125 Z M 28.703125 -3 C 28.023438 -2.476562 27.441406 -2.082031 26.953125 -1.8125 C 26.472656 -1.539062 25.925781 -1.273438 25.3125 -1.015625 L 32.46875 -1.015625 L 32.46875 -3 Z M 32.46875 -3.765625 L 32.46875 -6.328125 C 32.019531 -5.847656 31.617188 -5.429688 31.265625 -5.078125 C 30.910156 -4.722656 30.410156 -4.285156 29.765625 -3.765625 Z M 21.453125 -13.765625 C 21.546875 -13.734375 21.695312 -13.648438 21.90625 -13.515625 C 22.113281 -13.390625 22.335938 -13.238281 22.578125 -13.0625 C 22.828125 -12.882812 23.070312 -12.691406 23.3125 -12.484375 C 23.550781 -12.273438 23.769531 -12.078125 23.96875 -11.890625 L 23.96875 -13.765625 Z M 23.96875 -14.59375 L 23.96875 -16.421875 C 23.613281 -16.035156 23.28125 -15.722656 22.96875 -15.484375 C 22.664062 -15.242188 22.191406 -14.945312 21.546875 -14.59375 Z M 13.625 -26.046875 L 7.046875 -26.046875 C 7.367188 -25.785156 7.601562 -25.515625 7.75 -25.234375 C 7.894531 -24.960938 8.050781 -24.570312 8.21875 -24.0625 L 13.625 -24.0625 Z M 8.3125 -23.28125 C 8.34375 -23.03125 8.359375 -22.820312 8.359375 -22.65625 C 8.359375 -22.5 8.359375 -22.320312 8.359375 -22.125 L 8.359375 -21.15625 L 13.625 -21.15625 L 13.625 -23.28125 Z M 8.359375 -20.390625 L 8.359375 -18.265625 L 13.625 -18.265625 L 13.625 -20.390625 Z M 8.359375 -17.484375 L 8.359375 -15.359375 L 13.625 -15.359375 L 13.625 -17.484375 Z M 8.359375 -14.59375 L 8.359375 -12.46875 L 13.625 -12.46875 L 13.625 -14.59375 Z M 8.359375 -11.6875 L 8.359375 -9.5625 L 13.625 -9.5625 L 13.625 -11.6875 Z M 8.359375 -8.796875 L 8.359375 -6.671875 L 13.625 -6.671875 L 13.625 -8.796875 Z M 8.359375 -5.890625 L 8.359375 -4.921875 C 8.359375 -4.671875 8.359375 -4.476562 8.359375 -4.34375 C 8.359375 -4.21875 8.34375 -4.023438 8.3125 -3.765625 L 13.625 -3.765625 L 13.625 -5.890625 Z M 8.171875 -3 C 8.035156 -2.476562 7.894531 -2.082031 7.75 -1.8125 C 7.601562 -1.539062 7.367188 -1.273438 7.046875 -1.015625 L 13.625 -1.015625 L 13.625 -3 Z M 8.171875 -3 "/></g></g></g><g fill="#000000" fill-opacity="1"><g transform="translate(341.525093, 34.693483)"><g><path d="M 31.796875 -26.234375 L 13.578125 -1.015625 L 15.453125 -1.015625 C 17.421875 -1.015625 19.207031 -1.382812 20.8125 -2.125 C 22.425781 -2.863281 24.132812 -4.101562 25.9375 -5.84375 C 26.875 -6.75 27.6875 -7.609375 28.375 -8.421875 C 29.070312 -9.242188 29.742188 -10.15625 30.390625 -11.15625 L 31.203125 -11.15625 L 31.203125 0 L 1.59375 0 L 1.59375 -0.828125 L 19.765625 -26.046875 L 16.859375 -26.046875 C 13.960938 -26.046875 11.488281 -25.351562 9.4375 -23.96875 C 7.394531 -22.582031 5.519531 -20.328125 3.8125 -17.203125 L 2.84375 -17.203125 L 2.84375 -27.0625 L 31.796875 -27.0625 Z M 5.703125 -24.0625 C 6.054688 -24.414062 6.425781 -24.742188 6.8125 -25.046875 C 7.195312 -25.359375 7.664062 -25.691406 8.21875 -26.046875 L 3.859375 -26.046875 L 3.859375 -24.0625 Z M 3.859375 -23.28125 L 3.859375 -21.640625 C 4.085938 -22.023438 4.265625 -22.320312 4.390625 -22.53125 C 4.523438 -22.75 4.71875 -23 4.96875 -23.28125 Z M 27.484375 -26.046875 L 21.015625 -26.046875 L 19.609375 -24.0625 L 26.09375 -24.0625 Z M 19.03125 -23.28125 L 17.484375 -21.15625 L 24.015625 -21.15625 L 25.515625 -23.28125 Z M 16.90625 -20.390625 L 15.40625 -18.265625 L 21.9375 -18.265625 L 23.4375 -20.390625 Z M 14.828125 -17.484375 L 13.28125 -15.359375 L 19.8125 -15.359375 L 21.3125 -17.484375 Z M 12.703125 -14.59375 L 11.203125 -12.46875 L 17.734375 -12.46875 L 19.234375 -14.59375 Z M 10.625 -11.6875 L 9.078125 -9.5625 L 15.609375 -9.5625 L 17.15625 -11.6875 Z M 8.5 -8.796875 L 7 -6.671875 L 13.53125 -6.671875 L 15.03125 -8.796875 Z M 6.421875 -5.890625 L 4.921875 -3.765625 L 11.453125 -3.765625 L 12.953125 -5.890625 Z M 4.296875 -3 L 2.953125 -1.015625 L 9.46875 -1.015625 L 10.875 -3 Z M 24.390625 -3 C 23.847656 -2.613281 23.34375 -2.257812 22.875 -1.9375 C 22.40625 -1.613281 21.898438 -1.304688 21.359375 -1.015625 L 28.546875 -1.015625 L 28.546875 -3 Z M 28.546875 -3.765625 L 28.546875 -6.953125 C 28.035156 -6.410156 27.625 -5.96875 27.3125 -5.625 C 27.007812 -5.289062 26.742188 -5.019531 26.515625 -4.8125 C 26.296875 -4.601562 26.101562 -4.425781 25.9375 -4.28125 C 25.78125 -4.132812 25.601562 -3.960938 25.40625 -3.765625 Z M 28.546875 -3.765625 "/></g></g></g></g></g></svg>